<svg width="574" height="409" viewBox="0 0 574 409" fill="none" xmlns="http://www.w3.org/2000/svg">
<path d="M565.456 0H296.525C294.296 0 292.158 0.885432 290.582 2.46151C289.006 4.03758 288.121 6.1752 288.121 8.40411V400.596C288.121 402.825 289.006 404.962 290.582 406.538C292.158 408.115 294.296 409 296.525 409H565.456C567.685 409 569.823 408.115 571.399 406.538C572.975 404.962 573.86 402.825 573.86 400.596V8.40411C573.86 6.1752 572.975 4.03758 571.399 2.46151C569.823 0.885432 567.685 0 565.456 0ZM557.052 16.8082V82.8085L510.314 120.19C507.829 122.175 504.743 123.258 501.562 123.26H466.422C464.528 115.287 460 108.186 453.57 103.105C447.141 98.0237 439.185 95.2597 430.99 95.2597C422.795 95.2597 414.84 98.0237 408.41 103.105C401.981 108.186 397.453 115.287 395.559 123.26H360.418C357.238 123.258 354.152 122.175 351.667 120.19L304.929 82.8085V16.8082H557.052ZM430.99 151.274C427.112 151.274 423.321 150.124 420.096 147.969C416.871 145.814 414.358 142.752 412.873 139.169C411.389 135.585 411.001 131.643 411.758 127.839C412.514 124.035 414.382 120.541 417.124 117.798C419.867 115.056 423.361 113.188 427.165 112.432C430.969 111.675 434.911 112.063 438.495 113.547C442.078 115.032 445.14 117.545 447.295 120.77C449.45 123.995 450.6 127.786 450.6 131.664C450.594 136.863 448.526 141.848 444.85 145.524C441.174 149.2 436.189 151.268 430.99 151.274ZM450.6 162.323V213.061C444.751 209.301 437.944 207.301 430.99 207.301C424.037 207.301 417.23 209.301 411.381 213.061V162.323C417.23 166.083 424.037 168.082 430.99 168.082C437.944 168.082 444.751 166.083 450.6 162.323ZM430.99 224.11C434.869 224.11 438.66 225.26 441.885 227.414C445.11 229.569 447.623 232.632 449.107 236.215C450.591 239.798 450.98 243.741 450.223 247.545C449.467 251.349 447.599 254.843 444.856 257.585C442.114 260.328 438.62 262.195 434.816 262.952C431.012 263.709 427.069 263.32 423.486 261.836C419.903 260.352 416.84 257.838 414.686 254.614C412.531 251.389 411.381 247.598 411.381 243.719C411.387 238.52 413.455 233.536 417.131 229.86C420.807 226.183 425.791 224.116 430.99 224.11ZM304.929 392.192V104.323L341.167 133.312C346.639 137.665 353.426 140.035 360.418 140.035H394.573V243.719C394.573 253.378 398.409 262.641 405.239 269.47C412.069 276.3 421.332 280.137 430.99 280.137C440.649 280.137 449.912 276.3 456.742 269.47C463.571 262.641 467.408 253.378 467.408 243.719V140.068H501.562C508.555 140.069 515.342 137.699 520.813 133.345L557.052 104.323V392.192H304.929Z" fill="#4DC4E3"/>
<path d="M251.703 0H8.54382C6.31491 0 4.17729 0.885432 2.60122 2.46151C1.02514 4.03758 0.139709 6.1752 0.139709 8.40411L0.139709 176.486C0.139709 178.715 1.02514 180.853 2.60122 182.429C4.17729 184.005 6.31491 184.89 8.54382 184.89H251.703C253.932 184.89 256.069 184.005 257.645 182.429C259.221 180.853 260.107 178.715 260.107 176.486V8.40411C260.107 6.1752 259.221 4.03758 257.645 2.46151C256.069 0.885432 253.932 0 251.703 0ZM227.342 16.8082L130.123 93.0055L32.9045 16.8082H227.342ZM16.9479 168.082V25.6605L124.946 110.262C126.422 111.423 128.245 112.055 130.123 112.055C132.001 112.055 133.825 111.423 135.3 110.262L243.299 25.6605V168.082H16.9479Z" fill="#4DC4E3"/>
<path d="M232.653 235.312H53.3657C51.1368 235.312 48.9992 236.198 47.4231 237.774C45.8471 239.35 44.9616 241.488 44.9616 243.717V280.134H8.54382C6.31491 280.134 4.17729 281.02 2.60122 282.596C1.02514 284.172 0.139709 286.31 0.139709 288.539L0.139709 400.593C0.139709 402.822 1.02514 404.96 2.60122 406.536C4.17729 408.112 6.31491 408.997 8.54382 408.997H187.831C190.06 408.997 192.198 408.112 193.774 406.536C195.35 404.96 196.236 402.822 196.236 400.593V364.176H232.653C234.882 364.176 237.02 363.29 238.596 361.714C240.172 360.138 241.058 358 241.058 355.771V243.717C241.058 241.488 240.172 239.35 238.596 237.774C237.02 236.198 234.882 235.312 232.653 235.312ZM179.427 392.189H16.9479V296.943H179.427V392.189ZM224.249 347.367H196.236V288.539C196.236 286.31 195.35 284.172 193.774 282.596C192.198 281.02 190.06 280.134 187.831 280.134H61.7698V252.121H224.249V347.367Z" fill="#4DC4E3"/>
<path d="M92.5849 336.168H148.612C150.841 336.168 152.979 335.282 154.555 333.706C156.131 332.13 157.016 329.992 157.016 327.763C157.016 325.535 156.131 323.397 154.555 321.821C152.979 320.245 150.841 319.359 148.612 319.359H92.5849C90.356 319.359 88.2184 320.245 86.6423 321.821C85.0662 323.397 84.1808 325.535 84.1808 327.763C84.1808 329.992 85.0662 332.13 86.6423 333.706C88.2184 335.282 90.356 336.168 92.5849 336.168Z" fill="#4DC4E3"/>
<path d="M47.763 336.168H58.9685C61.1974 336.168 63.335 335.282 64.9111 333.706C66.4872 332.13 67.3726 329.992 67.3726 327.763C67.3726 325.535 66.4872 323.397 64.9111 321.821C63.335 320.245 61.1974 319.359 58.9685 319.359H47.763C45.5341 319.359 43.3965 320.245 41.8204 321.821C40.2443 323.397 39.3589 325.535 39.3589 327.763C39.3589 329.992 40.2443 332.13 41.8204 333.706C43.3965 335.282 45.5341 336.168 47.763 336.168Z" fill="#4DC4E3"/>
<path d="M47.763 369.777H148.612C150.841 369.777 152.979 368.892 154.555 367.315C156.131 365.739 157.016 363.602 157.016 361.373C157.016 359.144 156.131 357.006 154.555 355.43C152.979 353.854 150.841 352.969 148.612 352.969H47.763C45.5341 352.969 43.3965 353.854 41.8204 355.43C40.2443 357.006 39.3589 359.144 39.3589 361.373C39.3589 363.602 40.2443 365.739 41.8204 367.315C43.3965 368.892 45.5341 369.777 47.763 369.777Z" fill="#4DC4E3"/>
</svg>
