<svg width="448" height="453" viewBox="0 0 448 453" fill="none" xmlns="http://www.w3.org/2000/svg">
<path d="M439.623 50.3306H404.588L405.529 49.0524C409.178 44.1087 410.675 38.0294 409.749 31.929C408.824 25.8233 405.587 20.457 400.643 16.8179L383.89 4.48505C373.636 -3.05728 359.162 -0.860076 351.605 9.37066L321.377 50.3358H8.21794C3.68591 50.3358 0 54.0172 0 58.5437V374.841C0 379.367 3.68591 383.049 8.21794 383.049H179.605V405.036H123.74C110.503 405.036 99.7311 415.795 99.7311 429.021C99.7311 442.246 110.503 453 123.74 453H324.101C337.343 453 348.115 442.241 348.115 429.016C348.115 415.79 337.343 405.036 324.101 405.036H268.241V383.049H439.623C444.155 383.049 447.841 379.367 447.841 374.841V58.5384C447.841 54.0119 444.155 50.3306 439.623 50.3306ZM254.349 197.559L256.29 173.025L277.242 188.443L254.349 197.559ZM261.43 156.214L347.914 39.0065L378.274 61.3536L291.79 178.566L261.43 156.214ZM375.206 16.2475L391.96 28.5804C393.763 29.9061 394.942 31.8709 395.281 34.1156C395.619 36.3604 395.074 38.584 393.747 40.385L386.952 49.5911L356.592 27.2441L363.387 18.0327C366.153 14.288 371.452 13.4851 375.206 16.2475ZM310.6 64.9451L245.311 153.43C245.116 153.7 244.941 153.974 244.782 154.259C244.539 154.508 244.328 154.788 244.121 155.068C244.09 155.11 244.053 155.147 244.021 155.189C243.698 155.654 243.45 156.156 243.244 156.684C243.191 156.816 243.148 156.943 243.106 157.075C242.926 157.619 242.789 158.184 242.741 158.77L238.838 208.123C238.643 210.637 239.759 213.082 241.795 214.577C241.81 214.587 241.826 214.593 241.842 214.598C242.413 215.01 243.032 215.311 243.677 215.538C243.899 215.617 244.127 215.654 244.354 215.712C244.814 215.829 245.269 215.908 245.74 215.934C245.872 215.94 245.999 215.998 246.131 215.998C246.342 215.998 246.554 215.955 246.771 215.94C246.914 215.929 247.056 215.918 247.199 215.897C247.754 215.818 248.31 215.691 248.844 215.48L294.889 197.147C295.618 196.857 296.263 196.424 296.845 195.938C297.014 195.795 297.157 195.631 297.311 195.478C297.702 195.087 298.046 194.659 298.336 194.189C298.411 194.073 298.527 193.989 298.596 193.867C298.823 193.635 299.035 193.381 299.23 193.117L332.202 148.428L393.805 64.9399H433.213V321.147H14.6273V64.9451H310.6ZM333.482 429.016C333.482 434.181 329.273 438.385 324.101 438.385H123.74C118.568 438.385 114.358 434.181 114.358 429.016C114.358 423.85 118.568 419.646 123.74 419.646H324.101C329.278 419.641 333.482 423.85 333.482 429.016ZM253.614 405.031H194.232V383.043H253.614V405.031ZM14.6273 368.429V335.761H433.208V368.429H14.6273ZM49.0115 353.249C49.0115 357.284 45.7381 360.554 41.6978 360.554H40.2594C36.2192 360.554 32.9458 357.284 32.9458 353.249C32.9458 349.214 36.2192 345.944 40.2594 345.944H41.6978C45.7381 345.944 49.0115 349.214 49.0115 353.249ZM41.4863 248.591L122.714 295.43C123.845 296.085 125.109 296.407 126.373 296.407C127.637 296.407 128.901 296.079 130.033 295.43L211.26 248.591C213.524 247.287 214.92 244.873 214.92 242.264V148.587C214.92 145.978 213.524 143.564 211.26 142.259L130.033 95.4208C127.769 94.1109 124.982 94.1109 122.719 95.4208L41.4916 142.259C39.2282 143.564 37.8321 145.978 37.8321 148.587V242.264C37.8268 244.873 39.2229 247.287 41.4863 248.591ZM52.4594 161.242L119.054 199.645V276.447L52.4594 238.044V161.242ZM133.687 276.447V199.64L200.282 161.237V238.044L133.687 276.447ZM126.368 110.183L192.968 148.587L126.368 186.99L59.7731 148.587L126.368 110.183ZM198.986 280.636H396.296C400.336 280.636 403.61 283.905 403.61 287.94C403.61 291.976 400.336 295.245 396.296 295.245H198.986C194.946 295.245 191.673 291.976 191.673 287.94C191.673 283.91 194.946 280.636 198.986 280.636Z" fill="#4DC4E3"/>
</svg>
