<svg width="437" height="410" viewBox="0 0 437 410" fill="none" xmlns="http://www.w3.org/2000/svg">
<path d="M244.972 62.6322H300.689V87.0373H283.191C278.586 87.0373 275.363 90.7211 275.363 94.8654C275.363 99.4701 279.047 102.693 283.191 102.693H300.689V127.099H283.191C278.586 127.099 275.363 130.782 275.363 134.927C275.363 139.531 279.047 142.755 283.191 142.755H300.689V168.081H283.191C278.586 168.081 275.363 171.764 275.363 175.909C275.363 180.513 279.047 183.737 283.191 183.737H300.689V208.142H283.191C278.586 208.142 275.363 211.826 275.363 215.97C275.363 220.575 279.047 223.798 283.191 223.798H300.689V246.822H316.806V54.3437C316.806 49.7389 313.122 46.5156 308.978 46.5156H236.683C232.078 46.5156 228.855 50.1994 228.855 54.3437V247.282H244.972V62.6322Z" fill="#4DC4E3"/>
<path d="M136.761 126.613C136.761 124.771 137.221 122.469 137.221 120.627H154.719V247.257H170.836V120.627H188.334C188.794 122.469 188.794 124.771 188.794 126.613V247.257H204.911V126.613C204.911 116.483 202.148 105.892 197.083 97.1427L169.915 50.6348C167.152 45.5696 158.864 45.5696 156.101 50.6348L128.933 97.1427C123.868 106.352 121.105 116.483 121.105 126.613V247.257H137.221V126.613H136.761ZM163.008 70.4352L182.808 104.51H143.208L163.008 70.4352Z" fill="#4DC4E3"/>
<path d="M404.296 0H33.1541C14.7352 0 0 14.7352 0 33.1541V300.229C0 318.648 14.7352 333.383 33.1541 333.383H172.678V393.705H136.3C131.695 393.705 128.472 397.389 128.472 401.533C128.472 406.138 132.156 409.361 136.3 409.361H301.15C305.754 409.361 308.978 405.677 308.978 401.533C308.978 396.928 305.294 393.705 301.15 393.705H264.772V333.383H403.835C422.254 333.383 436.989 318.648 436.989 300.229V33.1541C437.45 14.7352 422.715 0 404.296 0ZM33.1541 16.1166H403.835C413.505 16.1166 421.333 23.9446 421.333 33.6146V263.851H16.1166V33.6146C16.1166 23.4842 23.9446 16.1166 33.1541 16.1166ZM248.656 393.705H188.794V333.383H249.116V393.705H248.656ZM404.296 317.727H33.1541C23.4842 317.727 15.6561 309.899 15.6561 300.229V279.507H420.873V300.229C421.333 309.899 413.505 317.727 404.296 317.727Z" fill="#4DC4E3"/>
</svg>
