<svg width="473" height="418" viewBox="0 0 473 418" fill="none" xmlns="http://www.w3.org/2000/svg">
<path d="M435.128 0H37.1428C27.2951 0.00930125 17.8538 3.47585 10.8905 9.639C3.92713 15.8022 0.0105089 24.1585 0 32.8745V385.125C0.0105089 393.841 3.92713 402.198 10.8905 408.361C17.8538 414.524 27.2951 417.991 37.1428 418H435.128C444.976 417.991 454.417 414.524 461.38 408.361C468.344 402.198 472.26 393.841 472.271 385.125V32.8745C472.26 24.1585 468.344 15.8022 461.38 9.639C454.417 3.47585 444.976 0.00930125 435.128 0ZM37.1428 18.7822H435.128C439.349 18.7871 443.396 20.2733 446.38 22.9151C449.365 25.5569 451.044 29.1385 451.05 32.8745V93.9336H21.2207V32.8745C21.2263 29.1385 22.9055 25.5569 25.8903 22.9151C28.875 20.2733 32.9217 18.7871 37.1428 18.7822ZM435.128 399.218H37.1428C32.9217 399.213 28.875 397.727 25.8903 395.085C22.9055 392.443 21.2263 388.861 21.2207 385.125V112.716H451.05V385.125C451.044 388.861 449.365 392.443 446.38 395.085C443.396 397.727 439.349 399.213 435.128 399.218Z" fill="#4DC4E3"/>
<path d="M355.532 68.0773C362.859 68.0773 368.798 62.8203 368.798 56.3355C368.798 49.8507 362.859 44.5938 355.532 44.5938C348.205 44.5938 342.266 49.8507 342.266 56.3355C342.266 62.8203 348.205 68.0773 355.532 68.0773Z" fill="#4DC4E3"/>
<path d="M302.465 68.0773C309.792 68.0773 315.731 62.8203 315.731 56.3355C315.731 49.8507 309.792 44.5938 302.465 44.5938C295.138 44.5938 289.199 49.8507 289.199 56.3355C289.199 62.8203 295.138 68.0773 302.465 68.0773Z" fill="#4DC4E3"/>
<path d="M408.595 68.0773C415.922 68.0773 421.862 62.8203 421.862 56.3355C421.862 49.8507 415.922 44.5938 408.595 44.5938C401.269 44.5938 395.329 49.8507 395.329 56.3355C395.329 62.8203 401.269 68.0773 408.595 68.0773Z" fill="#4DC4E3"/>
<path d="M209.602 140.945H63.6741C62.2806 140.945 60.9007 141.188 59.6132 141.659C58.3257 142.131 57.1559 142.823 56.1706 143.695C55.1853 144.567 54.4037 145.603 53.8706 146.742C53.3376 147.882 53.0634 149.103 53.0638 150.336V361.687C53.0634 362.92 53.3376 364.142 53.8706 365.281C54.4037 366.421 55.1853 367.456 56.1706 368.328C57.1559 369.2 58.3257 369.892 59.6132 370.364C60.9007 370.836 62.2806 371.078 63.6741 371.078H209.602C210.995 371.078 212.375 370.836 213.663 370.364C214.95 369.892 216.12 369.2 217.106 368.328C218.091 367.456 218.872 366.421 219.405 365.281C219.939 364.142 220.213 362.92 220.212 361.687V150.336C220.213 149.103 219.939 147.882 219.405 146.742C218.872 145.603 218.091 144.567 217.106 143.695C216.12 142.823 214.95 142.131 213.663 141.659C212.375 141.188 210.995 140.945 209.602 140.945ZM124.202 256.012L74.2844 328.308V183.715L124.202 256.012ZM82.5944 159.728H190.682L136.638 238.001L82.5944 159.728ZM136.638 274.024L190.682 352.297H82.5944L136.638 274.024ZM149.074 256.012L198.992 183.716V328.308L149.074 256.012Z" fill="#4DC4E3"/>
<path d="M408.596 140.945H262.668C259.854 140.945 257.155 141.935 255.165 143.696C253.175 145.457 252.057 147.846 252.057 150.336C252.057 152.827 253.175 155.216 255.165 156.977C257.155 158.738 259.854 159.727 262.668 159.727H408.596C411.41 159.727 414.108 158.738 416.098 156.977C418.088 155.216 419.206 152.827 419.206 150.336C419.206 147.846 418.088 145.457 416.098 143.696C414.108 141.935 411.41 140.945 408.596 140.945Z" fill="#4DC4E3"/>
<path d="M408.596 187.875H262.668C259.861 187.884 257.173 188.878 255.191 190.638C253.21 192.398 252.098 194.781 252.098 197.266C252.098 199.751 253.21 202.134 255.191 203.894C257.173 205.654 259.861 206.648 262.668 206.657H408.596C411.404 206.648 414.092 205.654 416.073 203.894C418.055 202.134 419.167 199.751 419.167 197.266C419.167 194.781 418.055 192.398 416.073 190.638C414.092 188.878 411.404 187.884 408.596 187.875Z" fill="#4DC4E3"/>
<path d="M408.596 234.812H262.668C259.854 234.812 257.155 235.802 255.165 237.563C253.175 239.324 252.057 241.713 252.057 244.204C252.057 246.694 253.175 249.083 255.165 250.844C257.155 252.605 259.854 253.595 262.668 253.595H408.596C411.41 253.595 414.108 252.605 416.098 250.844C418.088 249.083 419.206 246.694 419.206 244.204C419.206 241.713 418.088 239.324 416.098 237.563C414.108 235.802 411.41 234.812 408.596 234.812Z" fill="#4DC4E3"/>
<path d="M388.503 336.405L409.135 318.144C410.529 316.911 411.507 315.358 411.96 313.661C412.414 311.963 412.324 310.187 411.701 308.532C411.079 306.877 409.948 305.408 408.435 304.29C406.922 303.171 405.088 302.448 403.137 302.2L337.467 293.892C335.835 293.685 334.171 293.817 332.607 294.277C331.043 294.738 329.622 295.515 328.456 296.547C327.291 297.579 326.413 298.836 325.892 300.221C325.372 301.605 325.223 303.078 325.457 304.522L334.844 362.646C335.124 364.372 335.941 365.996 337.205 367.335C338.468 368.673 340.128 369.674 341.998 370.225C343.868 370.776 345.874 370.856 347.792 370.455C349.71 370.054 351.464 369.188 352.858 367.955L373.489 349.694L394.126 367.961C395.112 368.833 396.282 369.525 397.57 369.998C398.858 370.47 400.239 370.713 401.633 370.713C403.028 370.713 404.408 370.47 405.696 369.998C406.985 369.525 408.155 368.833 409.141 367.961C410.127 367.088 410.909 366.052 411.442 364.912C411.976 363.772 412.251 362.55 412.251 361.316C412.251 360.082 411.976 358.86 411.442 357.72C410.909 356.579 410.127 355.543 409.141 354.671L388.503 336.405ZM352.85 341.387L348.471 314.263L379.117 318.139L366 329.748L365.98 329.76L365.967 329.777L352.85 341.387Z" fill="#4DC4E3"/>
</svg>
