<svg width="479" height="453" viewBox="0 0 479 453" fill="none" xmlns="http://www.w3.org/2000/svg">
<path d="M394.808 149.188L419.467 121.804C420.427 120.736 421.024 119.393 421.174 117.965C421.324 116.538 421.018 115.099 420.301 113.856L396.194 72.0695C395.475 70.8213 394.378 69.8338 393.061 69.2492C391.744 68.6647 390.276 68.5134 388.867 68.817L352.822 76.4832L317.076 14.5731C313.349 8.08792 307.265 3.29056 300.089 1.18015C292.914 -0.930265 285.201 -0.191037 278.557 3.24388C271.913 6.67879 266.85 12.5446 264.422 19.6196C261.995 26.6947 262.39 34.4335 265.526 41.2244L222.3 94.2789H30.5324C22.4365 94.2878 14.6748 97.5086 8.95064 103.234C3.22648 108.96 0.00745949 116.723 0 124.82V338.458C0.0089513 346.554 3.22863 354.315 8.95263 360.04C14.6766 365.764 22.4375 368.984 30.5324 368.993H129.497L112.108 398.525H89.8105C82.5896 398.532 75.6666 401.405 70.5606 406.511C65.4547 411.617 62.5829 418.541 62.5754 425.763V446.202C62.5754 448.005 63.2916 449.734 64.5664 451.009C65.8411 452.284 67.5701 453 69.3729 453H307.838C308.731 453 309.615 452.824 310.439 452.483C311.264 452.141 312.014 451.64 312.645 451.009C313.276 450.378 313.777 449.628 314.118 448.803C314.46 447.979 314.636 447.095 314.636 446.202V425.779C314.628 418.559 311.757 411.636 306.652 406.53C301.548 401.424 294.626 398.551 287.406 398.542H265.103L247.748 369.01H346.684C354.779 369.001 362.54 365.781 368.264 360.057C373.988 354.332 377.208 346.571 377.217 338.475V243.166L381.613 242.456C385.932 248.57 392.44 252.783 399.786 254.221C407.131 255.658 414.748 254.209 421.052 250.174C427.356 246.139 431.862 239.829 433.634 232.557C435.406 225.285 434.307 217.609 430.565 211.126L394.808 149.188ZM386.917 83.1629L406.081 116.376L387.684 136.804L376.033 116.663C374.655 111.727 372.053 107.219 368.469 103.557L360.014 88.9013L386.917 83.1629ZM225.203 253.972L177.293 171.031L272.633 54.0314L374.151 229.903L225.203 253.972ZM165.795 178.308L175.039 194.311L213.13 260.297L178.584 280.246C169.413 285.504 158.534 286.919 148.323 284.182C138.112 281.446 129.399 274.78 124.086 265.641L116.645 252.755C111.368 243.588 109.941 232.702 112.678 222.485C115.414 212.267 122.091 203.553 131.244 198.252L165.795 178.308ZM287.406 412.138C291.022 412.143 294.488 413.581 297.044 416.139C299.6 418.696 301.038 422.163 301.041 425.779V439.421H76.1479V425.779C76.1524 422.163 77.5909 418.696 80.1479 416.139C82.705 413.581 86.1718 412.143 89.788 412.138H287.406ZM249.327 398.542H127.884L145.273 369.01H231.966L249.327 398.542ZM346.684 355.414H30.5324C26.0515 355.402 21.7575 353.617 18.5889 350.448C15.4204 347.279 13.6351 342.985 13.6232 338.503V327.883H363.644V338.475C363.638 342.97 361.849 347.278 358.669 350.454C355.489 353.63 351.178 355.414 346.684 355.414ZM363.622 314.265H13.595V124.82C13.5995 120.328 15.3852 116.022 18.5605 112.845C21.7357 109.668 26.0412 107.881 30.5324 107.875H211.219L167.345 161.696L124.446 186.499C112.178 193.603 103.228 205.284 99.5582 218.979C95.8886 232.674 97.7992 247.265 104.871 259.553L112.311 272.439C115.814 278.527 120.49 283.859 126.068 288.128C131.645 292.397 138.014 295.517 144.805 297.309C149.374 298.541 154.085 299.166 158.817 299.169C168.145 299.166 177.306 296.7 185.376 292.021L228.28 267.247L363.622 245.365V314.265ZM420.318 229.7C419.53 232.666 417.878 235.331 415.574 237.358C413.269 239.384 410.415 240.681 407.372 241.084C404.33 241.487 401.236 240.977 398.484 239.62C395.731 238.262 393.444 236.118 391.911 233.46L278.416 36.8614C276.361 33.2936 275.807 29.0553 276.876 25.0789C277.945 21.1026 280.55 17.7138 284.117 15.6582C287.685 13.6026 291.923 13.0485 295.899 14.1177C299.875 15.187 303.263 17.7921 305.319 21.3599L343.567 87.571L362.055 119.645L418.791 217.924C419.811 219.689 420.472 221.638 420.734 223.659C420.996 225.68 420.855 227.734 420.318 229.7ZM449.182 77.1878C448.409 77.6342 447.556 77.9239 446.671 78.0404C445.786 78.1569 444.886 78.0979 444.024 77.8668C443.162 77.6357 442.353 77.237 441.645 76.6935C440.937 76.15 440.343 75.4723 439.896 74.6991C439.45 73.9259 439.16 73.0724 439.044 72.1872C438.927 71.3021 438.986 70.4026 439.217 69.5403C439.449 68.6779 439.847 67.8695 440.391 67.1613C440.934 66.453 441.612 65.8587 442.385 65.4123L459.429 55.5703C460.202 55.1239 461.056 54.8342 461.941 54.7177C462.826 54.6012 463.725 54.6602 464.588 54.8913C465.45 55.1224 466.258 55.5211 466.967 56.0646C467.675 56.6081 468.269 57.2858 468.715 58.059C469.162 58.8322 469.451 59.6857 469.568 60.5709C469.684 61.456 469.625 62.3554 469.394 63.2178C469.163 64.0802 468.765 64.8886 468.221 65.5968C467.678 66.3051 467 66.8994 466.227 67.3458L449.182 77.1878ZM396.707 36.9234L401.78 17.9045C402.247 16.1628 403.386 14.6778 404.947 13.7761C406.508 12.8743 408.364 12.6298 410.105 13.0962C411.847 13.5627 413.332 14.7019 414.233 16.2633C415.135 17.8246 415.379 19.6803 414.913 21.4219L409.84 40.4408C409.374 42.1825 408.235 43.6676 406.673 44.5693C405.112 45.471 403.257 45.7156 401.515 45.2491C399.774 44.7827 398.289 43.6435 397.387 42.0821C396.486 40.5207 396.241 38.6651 396.707 36.9234ZM478.356 131.285C478.13 132.15 477.733 132.961 477.191 133.672C476.649 134.383 475.971 134.979 475.197 135.426C474.423 135.873 473.568 136.162 472.681 136.277C471.794 136.391 470.894 136.329 470.031 136.093L451.014 131.02C450.152 130.789 449.344 130.39 448.635 129.846C447.927 129.302 447.333 128.625 446.887 127.851C446.441 127.078 446.151 126.224 446.035 125.339C445.919 124.454 445.978 123.554 446.209 122.692C446.44 121.829 446.839 121.021 447.383 120.313C447.927 119.604 448.605 119.01 449.378 118.564C450.151 118.118 451.005 117.828 451.89 117.712C452.775 117.596 453.675 117.655 454.537 117.886L473.549 122.959C474.411 123.19 475.219 123.589 475.928 124.132C476.636 124.676 477.23 125.353 477.677 126.126C478.123 126.9 478.413 127.753 478.53 128.638C478.646 129.523 478.587 130.423 478.356 131.285Z" fill="#4DC4E3"/>
</svg>
